<svg xmlns="http://www.w3.org/2000/svg" xmlns:xlink="http://www.w3.org/1999/xlink" width="80" zoomAndPan="magnify" viewBox="0 0 300 125.249995" height="30" preserveAspectRatio="xMidYMid meet" version="1.0"><defs><g/><clipPath id="53c6958d31"><path d="M 0.894531 0 L 125.398438 0 L 125.398438 124.503906 L 0.894531 124.503906 Z M 0.894531 0 " clip-rule="nonzero"/></clipPath><clipPath id="775bb0aca7"><path d="M 63.144531 0 C 28.765625 0 0.894531 27.871094 0.894531 62.253906 C 0.894531 96.632812 28.765625 124.503906 63.144531 124.503906 C 97.527344 124.503906 125.398438 96.632812 125.398438 62.253906 C 125.398438 27.871094 97.527344 0 63.144531 0 Z M 63.144531 0 " clip-rule="nonzero"/></clipPath></defs><g clip-path="url(#53c6958d31)"><g clip-path="url(#775bb0aca7)"><path fill="#ffe400" d="M 0.894531 0 L 125.398438 0 L 125.398438 124.503906 L 0.894531 124.503906 Z M 0.894531 0 " fill-opacity="1" fill-rule="nonzero"/></g></g><g fill="#ffffff" fill-opacity="1"><g transform="translate(127.156419, 76.741297)"><g><path d="M 8.46875 0 L 3.53125 0 L 3.53125 -27.203125 L 10.5625 -27.203125 L 17.453125 -7.203125 L 17.84375 -7.203125 L 24.6875 -27.203125 L 31.5625 -27.203125 L 31.5625 0 L 26.453125 0 L 26.453125 -17.96875 L 26 -18.046875 L 19.703125 0 L 15.21875 0 L 8.9375 -18.046875 L 8.46875 -17.96875 Z M 8.46875 0 "/></g></g></g><g fill="#ffffff" fill-opacity="1"><g transform="translate(162.262484, 76.741297)"><g><path d="M 11.921875 0.390625 C 9.910156 0.390625 8.144531 -0.0195312 6.625 -0.84375 C 5.113281 -1.664062 3.9375 -2.875 3.09375 -4.46875 C 2.257812 -6.0625 1.84375 -7.988281 1.84375 -10.25 C 1.84375 -12.507812 2.257812 -14.4375 3.09375 -16.03125 C 3.9375 -17.632812 5.113281 -18.847656 6.625 -19.671875 C 8.144531 -20.503906 9.910156 -20.921875 11.921875 -20.921875 C 13.929688 -20.921875 15.695312 -20.503906 17.21875 -19.671875 C 18.738281 -18.847656 19.921875 -17.632812 20.765625 -16.03125 C 21.609375 -14.4375 22.03125 -12.507812 22.03125 -10.25 C 22.03125 -7.988281 21.609375 -6.0625 20.765625 -4.46875 C 19.921875 -2.875 18.738281 -1.664062 17.21875 -0.84375 C 15.695312 -0.0195312 13.929688 0.390625 11.921875 0.390625 Z M 11.921875 -3.984375 C 15.109375 -3.984375 16.703125 -6.070312 16.703125 -10.25 C 16.703125 -12.425781 16.289062 -14.019531 15.46875 -15.03125 C 14.65625 -16.039062 13.472656 -16.546875 11.921875 -16.546875 C 8.734375 -16.546875 7.140625 -14.445312 7.140625 -10.25 C 7.140625 -6.070312 8.734375 -3.984375 11.921875 -3.984375 Z M 11.921875 -3.984375 "/></g></g></g><g fill="#ffffff" fill-opacity="1"><g transform="translate(186.113028, 76.741297)"><g><path d="M 14.125 0 L 7.984375 0 L 0.390625 -20.53125 L 5.78125 -20.53125 L 10.890625 -5.90625 L 11.3125 -5.90625 L 16.4375 -20.53125 L 21.703125 -20.53125 Z M 14.125 0 "/></g></g></g><g fill="#ffffff" fill-opacity="1"><g transform="translate(208.177572, 76.741297)"><g><path d="M 5.53125 -22.984375 C 4.59375 -22.984375 3.832031 -23.265625 3.25 -23.828125 C 2.664062 -24.390625 2.375 -25.117188 2.375 -26.015625 C 2.375 -26.890625 2.664062 -27.609375 3.25 -28.171875 C 3.832031 -28.742188 4.59375 -29.03125 5.53125 -29.03125 C 6.144531 -29.03125 6.691406 -28.898438 7.171875 -28.640625 C 7.660156 -28.378906 8.035156 -28.019531 8.296875 -27.5625 C 8.566406 -27.113281 8.703125 -26.597656 8.703125 -26.015625 C 8.703125 -25.429688 8.566406 -24.910156 8.296875 -24.453125 C 8.035156 -23.992188 7.660156 -23.632812 7.171875 -23.375 C 6.691406 -23.113281 6.144531 -22.984375 5.53125 -22.984375 Z M 2.953125 0 L 2.953125 -20.53125 L 8.109375 -20.53125 L 8.109375 0 Z M 2.953125 0 "/></g></g></g><g fill="#ffffff" fill-opacity="1"><g transform="translate(219.228447, 76.741297)"><g><path d="M 20.28125 -9.09375 L 7.09375 -9.09375 C 7.238281 -7.3125 7.742188 -6.015625 8.609375 -5.203125 C 9.484375 -4.390625 10.671875 -3.984375 12.171875 -3.984375 C 13.347656 -3.984375 14.300781 -4.203125 15.03125 -4.640625 C 15.769531 -5.078125 16.359375 -5.742188 16.796875 -6.640625 L 17.1875 -6.640625 L 20.625 -4.453125 C 19.945312 -3.003906 18.929688 -1.832031 17.578125 -0.9375 C 16.234375 -0.0507812 14.429688 0.390625 12.171875 0.390625 C 10.046875 0.390625 8.210938 -0.0078125 6.671875 -0.8125 C 5.128906 -1.625 3.9375 -2.828125 3.09375 -4.421875 C 2.257812 -6.015625 1.84375 -7.957031 1.84375 -10.25 C 1.84375 -12.582031 2.28125 -14.546875 3.15625 -16.140625 C 4.039062 -17.742188 5.234375 -18.941406 6.734375 -19.734375 C 8.234375 -20.523438 9.921875 -20.921875 11.796875 -20.921875 C 14.703125 -20.921875 16.925781 -20.148438 18.46875 -18.609375 C 20.007812 -17.066406 20.78125 -14.804688 20.78125 -11.828125 C 20.78125 -10.753906 20.742188 -9.921875 20.671875 -9.328125 Z M 15.859375 -12.4375 C 15.804688 -14 15.441406 -15.132812 14.765625 -15.84375 C 14.085938 -16.5625 13.097656 -16.921875 11.796875 -16.921875 C 9.191406 -16.921875 7.660156 -15.425781 7.203125 -12.4375 Z M 15.859375 -12.4375 "/></g></g></g><g fill="#ffffff" fill-opacity="1"><g transform="translate(241.534845, 76.741297)"><g><path d="M 21.109375 -16.96875 L 21.109375 -27.203125 L 26.453125 -27.203125 L 26.453125 0 L 21.109375 0 L 21.109375 -12.390625 L 8.90625 -12.390625 L 8.90625 0 L 3.53125 0 L 3.53125 -27.203125 L 8.90625 -27.203125 L 8.90625 -16.96875 Z M 21.109375 -16.96875 "/></g></g></g><g fill="#ffffff" fill-opacity="1"><g transform="translate(271.543368, 76.741297)"><g><path d="M 13.328125 -27.203125 C 17.742188 -27.203125 21.113281 -26.0625 23.4375 -23.78125 C 25.757812 -21.5 26.921875 -18.109375 26.921875 -13.609375 C 26.921875 -9.109375 25.757812 -5.710938 23.4375 -3.421875 C 21.113281 -1.140625 17.742188 0 13.328125 0 L 3.53125 0 L 3.53125 -27.203125 Z M 13 -4.515625 C 15.8125 -4.515625 17.910156 -5.226562 19.296875 -6.65625 C 20.679688 -8.09375 21.375 -10.410156 21.375 -13.609375 C 21.375 -16.796875 20.679688 -19.101562 19.296875 -20.53125 C 17.910156 -21.96875 15.8125 -22.6875 13 -22.6875 L 8.90625 -22.6875 L 8.90625 -4.515625 Z M 13 -4.515625 "/></g></g></g><g fill="#ffffff" fill-opacity="1"><g transform="translate(12.701315, 93.191955)"><g><path d="M 7.5 0 L 7.5 -57.734375 L 18.921875 -57.734375 L 18.921875 -34.15625 L 20.171875 -34.15625 L 39.453125 -57.734375 L 51.140625 -57.734375 L 51.140625 -56.75 L 29.890625 -30.484375 L 53.34375 -0.984375 L 53.34375 0 L 40.4375 0 L 20.171875 -24.921875 L 18.921875 -24.921875 L 18.921875 0 Z M 7.5 0 "/></g></g></g><g fill="#ffffff" fill-opacity="1"><g transform="translate(49.873097, 93.191955)"><g><path d="M 44.78125 -36.015625 L 44.78125 -57.734375 L 56.15625 -57.734375 L 56.15625 0 L 44.78125 0 L 44.78125 -26.296875 L 18.921875 -26.296875 L 18.921875 0 L 7.5 0 L 7.5 -57.734375 L 18.921875 -57.734375 L 18.921875 -36.015625 Z M 44.78125 -36.015625 "/></g></g></g></svg>
